<?xml version="1.0" encoding="utf-8"?>
<!-- Generator: Adobe Illustrator 25.0.1, SVG Export Plug-In . SVG Version: 6.00 Build 0)  -->
<svg version="1.1" id="Layer_1" xmlns="http://www.w3.org/2000/svg" xmlns:xlink="http://www.w3.org/1999/xlink" x="0px" y="0px"
	 viewBox="0 0 666.7 302.8" style="enable-background:new 0 0 666.7 302.8;" xml:space="preserve">
<style type="text/css">
	.st0{fill:#FFFFFF;}
</style>
<g>
	<path class="st0" d="M145.3,268.2c-4.4-1.3-9-2.3-13.3-3.8c-9.4-3.4-18.6-7.1-28-10.5c-2.3-0.8-4.7-1.4-7.1-1.6
		c-8.9-0.8-17.9-1.4-26.9-2.2c-1.3-0.1-2.6-0.6-3.9-0.9c-2.6-0.7-3.5-2.6-3.2-4.9c0.3-2.4,1.8-4,4.3-4c1.7,0,3.3,0.3,5,0.4
		c2.5,0.2,4.9,0.5,7.7,0c-1.8-1.3-3.7-2.6-5.5-3.9c-17.4-12-32.9-26-46.2-42.5c-1-1.3-2.1-2.6-2.9-4c-1.3-2.3-0.8-4.9,1.2-6.2
		c2.1-1.4,4.1-1.1,6,0.4c0.8,0.6,1.3,1.5,1.9,2.3c17.7,22.1,39.2,39.8,64,53.5c3.6,2,7.2,3.1,11.4,2.8c4.1-0.3,8.2-0.3,12.3-0.4
		c0-0.3,0.1-0.7,0.1-1c-3.3-1.7-6.6-3.5-9.9-5.2c-11-5.9-21.5-12.7-30.6-21.3c-1.3-1.2-2.7-2.5-3.7-4c-1.3-2.1-0.9-4.2,1-5.8
		c1.7-1.6,3.6-1.5,5.4-0.1c1.1,0.8,2,1.7,3,2.6c8.2,7.6,22.1,17,31.1,20.6c-5.8-5.7-10.1-12.6-17.7-16.8
		c-14-7.5-26.4-17.4-37.7-28.5c-1.2-1.2-2.4-2.3-4.4-4.2c1.4,7.6,2.5,14.2,3.7,20.8c0.6,3.2-0.6,5.8-3.1,6.4
		c-2.6,0.6-5.6-1.4-6.2-4.5c-1.2-6-2.4-12.1-3.2-18.1c-0.7-4.6-0.6-9.3-1.4-13.9c-0.3-2-1.5-4-2.7-5.7c-3.7-5.2-3.4-7,2.2-10.3
		c0.6-6.4,1.2-12.9,1.8-19.3c0.2-1.8,0.3-3.7,0.7-5.4c1.6-6.6,1.4-13.2,1-19.9c-0.3-5.7-0.1-5.9,4.9-8.1c3.5-8.2,6.6-16.5,10.4-24.4
		c3-6.3,6.8-12.2,10.4-18.2c0.7-1.2,1.8-2.4,3-3.3c3-2,6.7,0,6.6,3.6c0,1.5-0.7,3.2-1.6,4.6c-9.8,15.1-16.4,31.5-21.4,48.6
		c-1.5,5.3-1.4,10.3,0.3,15.6c5.3,17,13.7,32.5,23.8,47c7.2,10.4,15.1,20.3,22.9,30.2c1.5,1.9,3.6,3.5,5.8,4.5
		c13.2,6.6,27.1,11,41.7,12.9c3.7,0.5,5.7,2.6,5.2,5.4c-0.5,2.8-2.9,4.6-6.4,3.9c-7.8-1.6-15.6-3.4-23.3-5.2c-1.4-0.3-2.9-0.8-4-1.1
		c-1.3,2.4-2.4,4.7-3.9,7.3c6.4,3.3,13.4,6.7,21,8.4c4.2,0.9,9.1,0.2,13.3-1c7.5-2,14.7-5,22-7.5c-0.1-0.3-0.1-0.6-0.2-1
		c-0.5-0.1-1-0.2-1.6-0.2c-2.6-0.1-4.5-1.2-4.9-4c-0.4-2.7,1.2-4.1,3.3-5.5c8.4-5.4,17.1-10.4,24.8-16.7
		c17.9-14.6,31.5-32.4,38.5-54.8c0.8-2.7,1.7-5.4,2.2-8.2c0.3-1.5,0.1-3.3-0.4-4.8c-5.6-14.4-13.4-27.5-24.7-38.3
		c-0.8-0.8-1.8-1.5-2.5-2.5c-1.7-2.2-1.6-4.7,0.1-6.3c1.8-1.7,4.1-1.9,6.3-0.2c1.9,1.6,3.9,3.2,5.4,5.2c6.1,7.8,12.1,15.8,18.3,23.9
		c2-1.9,4.9-3.1,8.4-0.6c-0.2-3.1-0.5-5.9-0.6-8.6c-0.1-2.5-1.2-4.4-3.1-6c-9.2-7.8-18.8-14.9-29.3-20.7c-2.2-1.2-5-1.8-7.5-2.1
		c-7.1-0.8-14.2-1.3-21.4-1.8c-0.9-0.1-1.9,0.1-3.4,0.1c4.8,3.7,9.2,6.9,13.3,10.4c12.2,10.4,21.8,22.8,27.5,38
		c0.7,1.9,1.4,3.7,1.8,5.7c0.7,3-0.7,5.1-3.3,5.8c-2.8,0.7-4.6-0.3-5.8-3.3c-1.6-4.2-2.9-8.5-5-12.5c-8-15.5-20.2-27.1-34.7-36.4
		c-0.7-0.4-1.4-0.9-2.1-1.3c-13.1-7.9-15.4-8.4-31.1-6.4c-0.2,1.7,0,3.7-0.8,5c-0.9,1.3-2.8,2.3-4.4,2.9
		c-27.7,10.2-43.4,30.8-50.5,58.7c-1.1,4.5-1.5,9.2-2.2,13.8c-0.3,2.2-0.6,4.4-2.9,5.4c-3.7,1.6-7.1-0.8-6.8-5.2
		c0.3-4.3,1-8.6,1.9-12.8c4.9-22.1,14.8-41.3,33-55.4c5.5-4.2,11.6-7.6,17.6-11.4c-4.1-0.3-7.8,0.2-11.4,2.8
		c-10.3,7.4-20.2,15.3-29.2,24.2c-4.6,4.6-5.4,4.6-10.6,0.3c-0.9,4.3-1.9,8.3-2.4,12.3c-0.6,4.6-0.8,9.3-1,13.9
		c-0.2,3.9-1.4,5.4-4.3,5.5c-3.1,0.1-4.9-1.8-4.9-5.5c0.2-25.8,7.8-48.8,26.2-67.5c1.3-1.3,2.5-2.6,3.8-4c0.1-0.1,0-0.3,0.1-0.9
		c-1.7-0.2-3.4-0.2-5.2-0.5c-3.6-0.5-5.1-2.1-5-5c0.1-3.1,1.7-4.3,5.5-4.1c3.6,0.2,7.3,0.6,10.9,1.1c3.4,0.5,6.4,0.1,9.5-1.8
		c5.2-3.2,10.8-5.8,17.3-9.2c-5.4-0.6-9.9-1.3-14.4-1.6c-6.7-0.4-13.3-0.5-20-0.8c-1.2,0-2.3-0.1-3.5-0.3c-2.7-0.5-4.2-2.4-4.1-4.8
		c0.2-2.4,1.9-4.3,4.6-4.3c6.2-0.1,12.4-0.3,18.5,0.3c12.7,1.2,25.4,3,38.1,4.5c1.6,0.2,3.3,0.3,5,0.2c3.5-0.1,6.6-0.3,9.9,2.1
		c2.6,1.9,6.6,1.9,10,2.7c2.3,0.5,4.5,1.2,6.8,1.5c2.1,0.2,4.3,0.4,6.3-0.1c14.4-3.7,28.9-6.1,43.8-6.9c0.7,0,1.3-0.1,2-0.1
		c3.4,0.2,5.3,1.9,5.4,4.7c0,2.8-1.7,4.4-5.3,4.7c-9.9,1-19.8,1.9-29.7,2.9c0,0.3,0,0.7,0,1c6.8,2.5,13.6,5,20.5,7.5
		c1.7,0.6,3.5,1.2,5.1,2.1c2.3,1.2,3.3,3.8,2.4,5.9c-0.9,2.1-3.3,3.5-5.7,3c-1.4-0.3-2.8-1-4.2-1.5c-12-4-23.9-8.1-35.9-11.9
		c-1.6-0.5-3.5,0.2-5.3,0.3c0,0.3-0.1,0.6-0.1,1c2.9,1.2,5.8,2.3,8.6,3.7c8.5,4.1,17,8.3,25.6,12.3c3.1,1.4,6.5,2.3,9.9,3.1
		c3.9,0.9,7.8,1.5,11.8,1.9c2.9,0.3,4.8,1.5,5.5,4.2c0.7,2.7-1.2,4.2-3.5,5.6c2.7,2,5.4,4,9,6.6c-2.3-11-4.4-20.9-6.5-30.7
		c-0.2-1-0.6-1.9-0.7-2.9c-0.4-3.2,0.9-5.3,3.4-5.8c2.7-0.5,4.6,0.6,5.5,3.7c1.1,3.7,2.1,7.4,2.8,11.1c1.9,9.8,3.6,19.6,5.3,29.4
		c0.6,3.2,2,5.7,4.2,8.2c5.6,6.3,10.8,13.1,16.1,19.6c0.6,0.8,1.1,1.7,1.6,2.6c1.6,3,1.1,5.3-1.4,6.9c-2.3,1.4-4.5,1-6.4-1.6
		c-1.9-2.5-3.5-5.3-5.4-7.8c-1.5-2.1-3.3-4.1-5.4-6.8c0.9,14.7,1.8,28.5,2.7,43.5c1.8-2.7,2.8-4.5,4.1-6.2c2-2.7,4.3-3.2,6.4-1.7
		c2.4,1.7,2.9,4,1,7c-3.3,5.2-7,10.1-10.3,15.3c-1.1,1.7-2.1,3.8-2.3,5.9c-1.5,13.2-2.7,26.5-4,39.7c0,0.3,0.1,0.6,0.2,1.1
		c2.6,0.8,4.8-0.4,6.8-1.7c5.2-3.3,10.3-6.8,15.4-10.2c1.1-0.7,2.2-1.5,3.4-2c2.1-0.9,3.9-0.1,5.2,1.7c1.3,1.9,1.2,3.8-0.3,5.5
		c-1,1.1-2.2,2-3.5,2.8c-9,5.7-17.9,11.5-27,17c-2.6,1.6-4.2,3.3-4.8,6.4c-1,4.8-2.7,9.6-4.4,14.3c-1.5,4.2-3.6,5.5-6.4,4.3
		c-2.5-1-3.2-3.6-2.1-7.2c0.9-2.8,1.6-5.6,2.7-9.2c-9.9,4.6-18.9,8.7-29,13.4c2.9,0.5,4.9,1,6.8,1.2c4.3,0.4,8.6,0.6,13,1
		c2.9,0.3,4.8,2.5,4.7,4.9c-0.1,2.5-2.1,4.3-5.1,4.5c-0.5,0-1,0-1.5-0.1c-9.1-0.9-18.3-1.2-27.3-2.7c-7.3-1.2-13.9-0.5-20.8,1.9
		c-16.1,5.4-32.6,9.3-49.4,11.5c-6.4,0.8-12.9,1.6-19.3,2.3c-1.1,0.1-2.6,0.4-3.4-0.1c-1.4-1-2.8-2.4-3.3-3.9
		c-0.6-1.9,0.5-3.6,2.4-4.3c1.2-0.5,2.5-0.7,3.8-0.9c8.6-1,17.2-1.9,25.7-2.9C145.4,268.9,145.4,268.6,145.3,268.2z M199.4,235.2
		c17.7-3.3,35.4-6.6,53.3-10c1.1-8.5,2.1-16.4,3.3-24.3c0.5-3,0.3-5.4-2.2-7.6C237.8,210,219.5,223.7,199.4,235.2z M250.7,157.9
		c-13.3,32.1-36.5,54.6-65.4,72.2c6.3-2.7,12.4-5.7,18.2-9.1c18.1-10.6,34.2-23.6,48.2-39.3c1.6-1.8,2.4-3.4,2-5.8
		C252.6,170,251.7,163.9,250.7,157.9z M173,248.6c-0.1,0.3-0.3,0.5-0.4,0.8c8.4,1.6,16.8,3.3,25.3,4.7c1.7,0.3,3.6-0.4,5.3-1.1
		c7.4-2.9,14.7-6,22-9.1c3.6-1.5,7.1-3.3,10.7-5c-0.1-0.1-0.1-0.3-0.2-0.4C214.8,241.9,193.9,245.3,173,248.6z M85.4,190.3
		c0.3-0.3,0.6-0.5,0.9-0.8c-10.5-14.7-20-30.1-27-46.8c-0.4,0.1-0.8,0.2-1.2,0.2c-0.1,6.8-0.1,13.6-0.2,20.3
		c3.3,3.7,6.6,7.4,9.9,11.1c0.3,0.4,0.7,0.7,1.1,1C74.4,180.4,79.9,185.3,85.4,190.3z M178.5,261.4c0-0.3,0-0.5,0.1-0.8
		c-6.2-1.7-12.6-3-18.6-5.2c-10-3.7-20.2-5.1-30.7-3.3c-0.6,0.1-1.3,0.2-1.9,0.2c6.3,2.6,12.7,4.6,19.2,6.2c6.6,1.6,6.9,1.8,7.5,9
		C162.3,265.4,170.4,263.4,178.5,261.4z M127.5,55.8c6.3,1.5,11.6,2.8,16.8,4c8.4-3.8,16.8-7.6,25.3-11.4c-4.5-1.6-8.9-3.4-12.9-2.8
		C146.7,47,137.3,50.5,127.5,55.8z M170.2,58.5c-3.5,1.5-7.5,3.3-11.5,5c0,0.4,0,0.8-0.1,1.2c4.6,1.5,9.2,3.7,13.9,4.2
		c7.7,0.8,15.5,0.5,24.5,0.7C187.7,65.8,179.4,62.3,170.2,58.5z M132.2,66.4c-6.3-1.2-11.7-2.2-17.4-3.3c-4.2,3.8-8.3,7.5-12.3,11.1
		c6.2-0.3,11.9-1.6,17.6-2C124.8,71.9,128,69.6,132.2,66.4z M87.1,101.8c6.3-5.7,12.7-11.3,19.7-17.6c-4.3,0.6-7.3,0.2-8.8-4.2
		C92.6,87,88.8,93.8,87.1,101.8z"/>
	<path class="st0" d="M155.2,185.2c-7.7-2.1-15.4-6.3-22-12.3c-10.3-9.5-17.6-20.8-20-34.8c-0.5-3.1-0.6-6.3-0.3-9.4
		c1.3-14.1,12.9-22.6,27.2-20.1c9.1,1.6,16.8,6.2,23.6,12.2c1.5,1.3,2.9,2.7,4.6,4.3c0.9-0.6,1.8-1.2,2.7-1.9
		c12-9.8,26.3-7.4,34.5,5.8c4.6,7.4,6.4,15.6,6.6,24.2c0.4,13.6-2.2,26.6-10.3,37.7c-2.9,3.9-6.6,7.6-10.7,10.3
		c-9.4,6.1-20.5,4.4-27.9-4.1C160.3,193.8,158.3,189.9,155.2,185.2z M202.7,155.4c0-1.8,0.2-3.7,0-5.5c-0.7-6.5-2.3-12.8-6.4-18.1
		c-4.9-6.3-11.5-7.3-18-2.7c-2,1.4-3.9,3.2-5.4,5.1c-9.1,11.9-11.5,25.5-9.6,40.1c0.7,5.2,2.3,10,5.3,14.3c5.3,7.5,12.5,8.7,19.7,3
		c2.1-1.6,3.9-3.7,5.4-5.8C200.2,176.8,202.7,166.4,202.7,155.4z M162.6,132.2c-4.2-3.3-8.1-6.7-12.3-9.5c-4.2-2.8-8.9-4.5-14-4.8
		c-7.9-0.5-13.3,3.9-13.6,11.8c-0.2,4.3-0.1,8.8,1.2,12.8c4.4,13.7,13.2,24,25.7,31.1c1.1,0.6,2.3,1,3.9,1.7
		C152,160,154.6,146,162.6,132.2z"/>
</g>
<g>
	<path class="st0" d="M331.8,137.5v31.3c0,14-4.3,19.6-13,19.6c-8.8,0-12.8-6-12.8-19v-31.8c0-13.5,5.1-18.4,13.1-18.4
		C327.3,119.2,331.8,124.9,331.8,137.5z M308.3,137.7v31.7c0,11.9,3.6,17.1,10.6,17.1c7.2,0,10.7-4.9,10.7-17.2v-31.5
		c0-12.2-4.1-16.4-10.7-16.4C313.6,121.3,308.3,123.9,308.3,137.7z"/>
	<path class="st0" d="M346.9,154.9h0.1c2.8-5.5,14-25.2,19.2-34.6h2.5L355,144.8l15.6,42.6h-2.5l-14.6-40.5l-6.7,12.4v28h-2.3V94.8
		h2.3V154.9z"/>
	<path class="st0" d="M402.3,137.5v31.3c0,14-4.3,19.6-13,19.6c-8.8,0-12.8-6-12.8-19v-31.8c0-13.5,5.1-18.4,13.1-18.4
		C397.8,119.2,402.3,124.9,402.3,137.5z M378.8,137.7v31.7c0,11.9,3.6,17.1,10.6,17.1c7.2,0,10.7-4.9,10.7-17.2v-31.5
		c0-12.2-4.1-16.4-10.7-16.4C384.2,121.3,378.8,123.9,378.8,137.7z"/>
	<path class="st0" d="M413.7,169.9v1.5c0,6.9,1.2,15.1,10,15.1c7.6,0,10.4-4.8,10.4-14.4c0-8.7-1.9-13-10.3-19.1
		c-8-5.9-11.2-9.6-11.2-19.1c0-7.3,2.5-14.6,11.6-14.6c10.6,0,11.2,9.6,11.2,15.5v1.9h-2.3v-1.7c0-4.8-0.3-13.6-9.1-13.6
		c-6.5,0-9.2,4.9-9.2,12.4c0,8.3,2.1,11.4,9.6,16.8c8.7,6.4,11.9,10.8,11.9,21.4c0,9.9-2.9,16.6-12.7,16.6
		c-11.2,0-12.3-10.6-12.3-17.1v-1.5H413.7z"/>
	<path class="st0" d="M465.9,187.4v-65h-7.5v-2h7.5v-13c0-7.5,1.5-13,8.3-13c1.5,0,2.4,0.1,3.2,0.4v2.3c-0.7-0.3-1.7-0.5-3.3-0.5
		c-5.1,0-5.9,3.9-5.9,11.8v12h8.4v2h-8.4v65H465.9z"/>
	<path class="st0" d="M484.2,152.4v16.7c0,11.9,3.1,17.4,10.3,17.4c8.8,0,10.2-7.1,10.2-16.6v-0.4h2.3v0.3c0,9.8-1.6,18.7-12.4,18.7
		c-10.3,0-12.6-7.6-12.6-19.6v-30.9c0-11.6,3.7-18.7,12.8-18.7c8.9,0,12.4,6.7,12.4,18c0,3.7,0,11.4,0,15.1H484.2z M504.9,150.4
		v-11.6c0-8.5-1.2-17.5-10.2-17.5c-8.5,0-10.6,7.7-10.6,17.6v11.5H504.9z M508.4,94.1l-13,15.6h-2.5l12.7-15.6H508.4z"/>
	<path class="st0" d="M518,169.9v1.5c0,6.9,1.2,15.1,10,15.1c7.6,0,10.4-4.8,10.4-14.4c0-8.7-1.9-13-10.3-19.1
		c-8-5.9-11.2-9.6-11.2-19.1c0-7.3,2.5-14.6,11.6-14.6c10.6,0,11.2,9.6,11.2,15.5v1.9h-2.3v-1.7c0-4.8-0.3-13.6-9.1-13.6
		c-6.5,0-9.2,4.9-9.2,12.4c0,8.3,2.1,11.4,9.6,16.8c8.7,6.4,11.9,10.8,11.9,21.4c0,9.9-2.9,16.6-12.7,16.6
		c-11.2,0-12.3-10.6-12.3-17.1v-1.5H518z"/>
	<path class="st0" d="M547.4,186l24.3-63.7H550v-2h24v1.6l-24,63.4h23.8l-0.4,2h-26V186z"/>
	<path class="st0" d="M582.9,152.4v16.7c0,11.9,3.1,17.4,10.3,17.4c8.8,0,10.2-7.1,10.2-16.6v-0.4h2.3v0.3c0,9.8-1.6,18.7-12.4,18.7
		c-10.3,0-12.6-7.6-12.6-19.6v-30.9c0-11.6,3.7-18.7,12.8-18.7c8.9,0,12.4,6.7,12.4,18c0,3.7,0,11.4,0,15.1H582.9z M603.6,150.4
		v-11.6c0-8.5-1.2-17.5-10.2-17.5c-8.5,0-10.6,7.7-10.6,17.6v11.5H603.6z"/>
	<path class="st0" d="M619.9,154.9h0.1c2.8-5.5,14-25.2,19.2-34.6h2.5L628,144.8l15.6,42.6h-2.5l-14.6-40.5l-6.7,12.4v28h-2.3V94.8
		h2.3V154.9z"/>
</g>
</svg>
