<?xml version="1.0" encoding="utf-8"?>
<!-- Generator: Adobe Illustrator 25.0.1, SVG Export Plug-In . SVG Version: 6.00 Build 0)  -->
<svg version="1.1" id="Layer_1" xmlns="http://www.w3.org/2000/svg" xmlns:xlink="http://www.w3.org/1999/xlink" x="0px" y="0px"
	 viewBox="0 0 547.5 147.4" style="enable-background:new 0 0 547.5 147.4;" xml:space="preserve">
<style type="text/css">
	.st0{fill:#FFFFFF;}
</style>
<g>
	<path class="st0" d="M67.5,136.9c-2.4-0.7-4.8-1.2-7.1-2c-5-1.8-9.9-3.8-14.8-5.6c-1.2-0.4-2.5-0.7-3.8-0.9
		c-4.8-0.4-9.5-0.8-14.3-1.1c-0.7-0.1-1.4-0.3-2.1-0.5c-1.4-0.3-1.8-1.4-1.7-2.6c0.1-1.3,1-2.1,2.3-2.1c0.9,0,1.8,0.1,2.6,0.2
		c1.3,0.1,2.6,0.3,4.1,0c-1-0.7-2-1.4-2.9-2c-9.2-6.4-17.5-13.8-24.5-22.5c-0.6-0.7-1.1-1.4-1.6-2.1c-0.7-1.2-0.4-2.6,0.6-3.3
		c1.1-0.8,2.2-0.6,3.2,0.2c0.4,0.3,0.7,0.8,1,1.2c9.4,11.7,20.8,21.1,34,28.4c1.9,1.1,3.8,1.7,6,1.5c2.2-0.2,4.3-0.1,6.5-0.2
		c0-0.2,0-0.4,0.1-0.5c-1.8-0.9-3.5-1.8-5.3-2.8c-5.9-3.1-11.4-6.8-16.3-11.3c-0.7-0.7-1.5-1.3-2-2.1c-0.7-1.1-0.5-2.2,0.5-3.1
		c0.9-0.8,1.9-0.8,2.9-0.1c0.6,0.4,1.1,0.9,1.6,1.4c4.3,4,11.7,9,16.5,10.9c-3.1-3-5.4-6.7-9.4-8.9c-7.4-4-14-9.3-20-15.2
		c-0.6-0.6-1.3-1.2-2.3-2.2c0.7,4,1.3,7.5,2,11c0.3,1.7-0.3,3.1-1.6,3.4c-1.4,0.3-3-0.7-3.3-2.4c-0.6-3.2-1.3-6.4-1.7-9.6
		c-0.4-2.4-0.3-4.9-0.7-7.4c-0.2-1.1-0.8-2.1-1.5-3c-1.9-2.8-1.8-3.7,1.2-5.4c0.3-3.4,0.6-6.8,1-10.3c0.1-1,0.2-1.9,0.4-2.9
		c0.8-3.5,0.8-7,0.5-10.5c-0.2-3-0.1-3.2,2.6-4.3c1.8-4.4,3.5-8.7,5.5-13c1.6-3.3,3.6-6.5,5.5-9.6c0.4-0.7,1-1.3,1.6-1.7
		c1.6-1.1,3.6,0,3.5,1.9c0,0.8-0.4,1.7-0.8,2.4c-5.2,8-8.7,16.7-11.3,25.8c-0.8,2.8-0.7,5.5,0.1,8.3c2.8,9,7.3,17.2,12.6,25
		c3.8,5.5,8,10.8,12.2,16.1c0.8,1,1.9,1.8,3.1,2.4c7,3.5,14.4,5.8,22.1,6.9c1.9,0.3,3,1.4,2.8,2.8c-0.2,1.5-1.5,2.5-3.4,2.1
		c-4.1-0.8-8.3-1.8-12.4-2.8c-0.8-0.2-1.5-0.4-2.1-0.6c-0.7,1.3-1.3,2.5-2,3.9c3.4,1.7,7.1,3.6,11.1,4.5c2.2,0.5,4.8,0.1,7.1-0.5
		c4-1.1,7.8-2.6,11.7-4c0-0.2-0.1-0.3-0.1-0.5c-0.3,0-0.6-0.1-0.8-0.1c-1.4-0.1-2.4-0.7-2.6-2.1c-0.2-1.4,0.6-2.2,1.8-2.9
		c4.4-2.9,9.1-5.5,13.2-8.9c9.5-7.7,16.7-17.2,20.4-29.1c0.4-1.4,0.9-2.9,1.2-4.3c0.1-0.8,0.1-1.8-0.2-2.5
		c-3-7.7-7.1-14.6-13.1-20.3c-0.4-0.4-0.9-0.8-1.3-1.3c-0.9-1.2-0.8-2.5,0-3.4c0.9-0.9,2.2-1,3.3-0.1c1,0.8,2.1,1.7,2.9,2.7
		c3.3,4.2,6.4,8.4,9.7,12.7c1.1-1,2.6-1.7,4.5-0.3c-0.1-1.7-0.3-3.1-0.3-4.6c-0.1-1.3-0.6-2.3-1.6-3.2c-4.9-4.1-10-7.9-15.6-11
		c-1.2-0.7-2.6-0.9-4-1.1c-3.8-0.4-7.6-0.7-11.4-1c-0.5,0-1,0-1.8,0.1c2.5,2,4.9,3.7,7.1,5.5c6.5,5.5,11.6,12.1,14.6,20.2
		c0.4,1,0.7,2,1,3c0.3,1.6-0.4,2.7-1.8,3.1c-1.5,0.4-2.4-0.1-3.1-1.7c-0.9-2.2-1.6-4.5-2.6-6.6c-4.2-8.2-10.7-14.4-18.4-19.4
		c-0.4-0.2-0.8-0.5-1.1-0.7c-6.9-4.2-8.2-4.5-16.5-3.4c-0.1,0.9,0,2-0.4,2.7c-0.5,0.7-1.5,1.2-2.3,1.5c-14.7,5.4-23,16.3-26.8,31.2
		c-0.6,2.4-0.8,4.9-1.2,7.3c-0.2,1.2-0.3,2.3-1.6,2.9c-1.9,0.9-3.8-0.4-3.6-2.7c0.2-2.3,0.5-4.6,1-6.8c2.6-11.7,7.9-21.9,17.5-29.4
		c2.9-2.2,6.2-4,9.4-6c-2.2-0.2-4.1,0.1-6,1.5c-5.5,3.9-10.7,8.1-15.5,12.9c-2.5,2.4-2.9,2.4-5.6,0.2c-0.5,2.3-1,4.4-1.3,6.5
		c-0.3,2.5-0.4,4.9-0.5,7.4c-0.1,2.1-0.7,2.9-2.3,2.9c-1.6,0.1-2.6-0.9-2.6-2.9c0.1-13.7,4.1-25.9,13.9-35.8c0.7-0.7,1.3-1.4,2-2.1
		c0,0,0-0.2,0-0.5c-0.9-0.1-1.8-0.1-2.7-0.3c-1.9-0.3-2.7-1.1-2.6-2.7c0.1-1.6,0.9-2.3,2.9-2.2c1.9,0.1,3.9,0.3,5.8,0.6
		c1.8,0.3,3.4,0.1,5-1c2.8-1.7,5.7-3.1,9.2-4.9c-2.9-0.3-5.2-0.7-7.6-0.8c-3.5-0.2-7.1-0.3-10.6-0.4c-0.6,0-1.2,0-1.8-0.1
		c-1.4-0.3-2.3-1.3-2.2-2.5c0.1-1.3,1-2.3,2.5-2.3c3.3,0,6.6-0.2,9.8,0.1c6.8,0.7,13.5,1.6,20.2,2.4c0.9,0.1,1.8,0.1,2.6,0.1
		c1.8-0.1,3.5-0.1,5.2,1.1c1.4,1,3.5,1,5.3,1.4c1.2,0.3,2.4,0.6,3.6,0.8c1.1,0.1,2.3,0.2,3.4-0.1c7.6-2,15.4-3.2,23.2-3.7
		c0.4,0,0.7-0.1,1.1,0c1.8,0.1,2.8,1,2.9,2.5c0,1.5-0.9,2.3-2.8,2.5c-5.3,0.5-10.5,1-15.8,1.5c0,0.2,0,0.4,0,0.5
		c3.6,1.3,7.2,2.6,10.9,4c0.9,0.3,1.8,0.6,2.7,1.1c1.2,0.7,1.8,2,1.3,3.1c-0.5,1.1-1.8,1.9-3,1.6c-0.8-0.2-1.5-0.5-2.2-0.8
		c-6.3-2.1-12.7-4.3-19.1-6.3c-0.8-0.3-1.9,0.1-2.8,0.2c0,0.2,0,0.3,0,0.5c1.5,0.6,3.1,1.2,4.6,2c4.5,2.2,9,4.4,13.6,6.5
		c1.7,0.8,3.5,1.2,5.2,1.6c2.1,0.5,4.2,0.8,6.3,1c1.5,0.2,2.5,0.8,2.9,2.2c0.4,1.5-0.7,2.2-1.8,3c1.5,1.1,2.9,2.1,4.8,3.5
		c-1.2-5.8-2.3-11.1-3.5-16.3c-0.1-0.5-0.3-1-0.4-1.5c-0.2-1.7,0.5-2.8,1.8-3.1c1.4-0.3,2.4,0.3,2.9,2c0.6,1.9,1.1,3.9,1.5,5.9
		c1,5.2,1.9,10.4,2.8,15.6c0.3,1.7,1.1,3,2.3,4.3c3,3.4,5.7,6.9,8.6,10.4c0.3,0.4,0.6,0.9,0.8,1.4c0.8,1.6,0.6,2.8-0.7,3.7
		c-1.2,0.8-2.4,0.5-3.4-0.9c-1-1.4-1.9-2.8-2.9-4.1c-0.8-1.1-1.7-2.2-2.9-3.6c0.5,7.8,0.9,15.1,1.4,23.1c0.9-1.4,1.5-2.4,2.2-3.3
		c1.1-1.4,2.3-1.7,3.4-0.9c1.3,0.9,1.6,2.1,0.6,3.7c-1.8,2.7-3.7,5.4-5.5,8.1c-0.6,0.9-1.1,2-1.2,3.1c-0.8,7-1.4,14-2.1,21.1
		c0,0.2,0.1,0.3,0.1,0.6c1.4,0.4,2.5-0.2,3.6-0.9c2.7-1.8,5.4-3.6,8.2-5.4c0.6-0.4,1.2-0.8,1.8-1.1c1.1-0.5,2.1-0.1,2.8,0.9
		c0.7,1,0.7,2-0.2,2.9c-0.5,0.6-1.2,1.1-1.8,1.5c-4.8,3-9.5,6.1-14.3,9c-1.4,0.8-2.2,1.7-2.6,3.4c-0.6,2.6-1.5,5.1-2.3,7.6
		c-0.8,2.2-1.9,2.9-3.4,2.3c-1.3-0.5-1.7-1.9-1.1-3.8c0.5-1.5,0.9-3,1.4-4.9c-5.3,2.4-10.1,4.6-15.4,7.1c1.6,0.3,2.6,0.5,3.6,0.6
		c2.3,0.2,4.6,0.3,6.9,0.5c1.5,0.2,2.5,1.3,2.5,2.6c-0.1,1.3-1.1,2.3-2.7,2.4c-0.3,0-0.5,0-0.8,0c-4.8-0.5-9.7-0.6-14.5-1.5
		c-3.9-0.7-7.4-0.2-11,1c-8.5,2.9-17.3,5-26.2,6.1c-3.4,0.4-6.8,0.8-10.3,1.2c-0.6,0.1-1.4,0.2-1.8-0.1c-0.7-0.5-1.5-1.3-1.7-2.1
		c-0.3-1,0.3-1.9,1.3-2.3c0.6-0.2,1.3-0.4,2-0.5c4.6-0.5,9.1-1,13.7-1.5C67.6,137.3,67.6,137.1,67.5,136.9z M96.2,119.4
		c9.4-1.8,18.8-3.5,28.3-5.3c0.6-4.5,1.1-8.7,1.8-12.9c0.3-1.6,0.2-2.9-1.2-4C116.6,106,106.9,113.3,96.2,119.4z M123.5,78.4
		c-7.1,17-19.4,29-34.7,38.4c3.3-1.4,6.6-3,9.7-4.8c9.6-5.6,18.2-12.5,25.6-20.8c0.8-0.9,1.3-1.8,1.1-3.1
		C124.5,84.8,124,81.6,123.5,78.4z M82.2,126.6c-0.1,0.1-0.1,0.3-0.2,0.4c4.5,0.9,8.9,1.8,13.4,2.5c0.9,0.1,1.9-0.2,2.8-0.6
		c3.9-1.6,7.8-3.2,11.7-4.8c1.9-0.8,3.8-1.8,5.7-2.7c0-0.1-0.1-0.1-0.1-0.2C104.4,123,93.3,124.8,82.2,126.6z M35.7,95.6
		c0.2-0.1,0.3-0.3,0.5-0.4c-5.6-7.8-10.6-16-14.3-24.9c-0.2,0-0.4,0.1-0.6,0.1c0,3.6-0.1,7.2-0.1,10.8c1.8,2,3.5,3.9,5.3,5.9
		c0.2,0.2,0.4,0.4,0.6,0.6C29.9,90.3,32.8,92.9,35.7,95.6z M85.1,133.3c0-0.1,0-0.3,0-0.4c-3.3-0.9-6.7-1.6-9.9-2.8
		c-5.3-2-10.7-2.7-16.3-1.8c-0.3,0.1-0.7,0.1-1,0.1c3.3,1.4,6.8,2.4,10.2,3.3c3.5,0.9,3.7,1,4,4.8C76.5,135.5,80.8,134.4,85.1,133.3
		z M58.1,24.1c3.3,0.8,6.1,1.5,8.9,2.1c4.5-2,8.9-4.1,13.4-6.1c-2.4-0.9-4.7-1.8-6.8-1.5C68.3,19.5,63.3,21.4,58.1,24.1z M80.7,25.6
		c-1.9,0.8-4,1.7-6.1,2.7c0,0.2,0,0.4,0,0.6c2.5,0.8,4.9,2,7.4,2.2c4.1,0.4,8.2,0.3,13,0.4C90,29.5,85.6,27.6,80.7,25.6z M60.6,29.8
		c-3.3-0.6-6.2-1.2-9.2-1.8c-2.2,2-4.4,4-6.5,5.9c3.3-0.1,6.3-0.8,9.3-1.1C56.6,32.7,58.3,31.5,60.6,29.8z M36.6,48.6
		c3.4-3,6.7-6,10.5-9.3c-2.3,0.3-3.9,0.1-4.7-2.2C39.5,40.7,37.5,44.3,36.6,48.6z"/>
	<path class="st0" d="M72.8,92.9c-4.1-1.1-8.2-3.3-11.7-6.6c-5.5-5-9.3-11-10.6-18.5c-0.3-1.6-0.3-3.4-0.2-5
		c0.7-7.5,6.9-12,14.4-10.7c4.8,0.9,8.9,3.3,12.5,6.5c0.8,0.7,1.5,1.4,2.4,2.3c0.5-0.3,1-0.7,1.4-1c6.4-5.2,14-3.9,18.3,3.1
		c2.4,3.9,3.4,8.3,3.5,12.9c0.2,7.2-1.1,14.1-5.5,20c-1.5,2.1-3.5,4-5.7,5.4c-5,3.3-10.9,2.3-14.8-2.2
		C75.5,97.4,74.4,95.4,72.8,92.9z M98,77c0-1,0.1-2,0-2.9c-0.4-3.5-1.2-6.8-3.4-9.6c-2.6-3.3-6.1-3.9-9.5-1.4
		c-1.1,0.8-2.1,1.7-2.9,2.7C77.3,72.2,76,79.4,77,87.1c0.4,2.7,1.2,5.3,2.8,7.6c2.8,4,6.6,4.6,10.5,1.6c1.1-0.9,2.1-1.9,2.9-3.1
		C96.7,88.4,98,82.9,98,77z M76.7,64.7c-2.2-1.7-4.3-3.5-6.5-5.1c-2.2-1.5-4.7-2.4-7.4-2.5c-4.2-0.2-7,2.1-7.2,6.3
		c-0.1,2.3,0,4.7,0.7,6.8c2.3,7.3,7,12.8,13.6,16.5c0.6,0.3,1.2,0.5,2.1,0.9C71.1,79.5,72.5,72.1,76.7,64.7z"/>
</g>
<g>
	<path class="st0" d="M184.6,68.2v34.7c0,15.6-4.8,21.8-14.4,21.8c-9.8,0-14.3-6.7-14.3-21.1V68.3c0-15,5.6-20.5,14.6-20.5
		C179.5,47.8,184.6,54.1,184.6,68.2z M158.4,68.3v35.2c0,13.2,4,19,11.7,19c8,0,11.9-5.5,11.9-19.2v-35c0-13.5-4.6-18.3-11.9-18.3
		C164.4,50.1,158.4,53,158.4,68.3z"/>
	<path class="st0" d="M201.3,87.5h0.1c3.1-6.1,15.6-28.1,21.4-38.5h2.8l-15.3,27.2l17.4,47.4h-2.8l-16.2-45l-7.4,13.8v31.2h-2.5
		V20.7h2.5V87.5z"/>
	<path class="st0" d="M262.9,68.2v34.7c0,15.6-4.8,21.8-14.4,21.8c-9.8,0-14.3-6.7-14.3-21.1V68.3c0-15,5.6-20.5,14.6-20.5
		C257.9,47.8,262.9,54.1,262.9,68.2z M236.8,68.3v35.2c0,13.2,4,19,11.7,19c8,0,11.9-5.5,11.9-19.2v-35c0-13.5-4.6-18.3-11.9-18.3
		C242.7,50.1,236.8,53,236.8,68.3z"/>
	<path class="st0" d="M275.6,104.1v1.6c0,7.7,1.3,16.8,11.1,16.8c8.5,0,11.6-5.3,11.6-16c0-9.7-2.1-14.4-11.4-21.2
		c-8.9-6.5-12.5-10.7-12.5-21.2c0-8.2,2.8-16.2,12.9-16.2c11.7,0,12.5,10.7,12.5,17.2v2.1h-2.5v-1.9c0-5.3-0.3-15.1-10.1-15.1
		c-7.3,0-10.2,5.5-10.2,13.8c0,9.2,2.4,12.6,10.7,18.7c9.7,7.1,13.2,12,13.2,23.8c0,11-3.3,18.4-14.1,18.4
		c-12.5,0-13.7-11.7-13.7-19v-1.6H275.6z"/>
	<path class="st0" d="M333.6,123.6V51.2h-8.3V49h8.3V34.6c0-8.3,1.6-14.4,9.2-14.4c1.6,0,2.7,0.1,3.6,0.4v2.5
		c-0.7-0.3-1.9-0.6-3.7-0.6c-5.6,0-6.5,4.3-6.5,13.1V49h9.4v2.2h-9.4v72.3H333.6z"/>
	<path class="st0" d="M353.9,84.7v18.6c0,13.2,3.4,19.3,11.4,19.3c9.8,0,11.3-7.9,11.3-18.4v-0.4h2.5v0.3c0,10.8-1.8,20.8-13.8,20.8
		c-11.4,0-14-8.5-14-21.8V68.6c0-12.9,4.2-20.8,14.3-20.8c9.9,0,13.8,7.4,13.8,20c0,4.2,0,12.6,0,16.8H353.9z M377,82.4V69.5
		c0-9.5-1.3-19.4-11.3-19.4c-9.5,0-11.7,8.6-11.7,19.6v12.8H377z M380.8,19.9l-14.4,17.4h-2.8l14.1-17.4H380.8z"/>
	<path class="st0" d="M391.5,104.1v1.6c0,7.7,1.3,16.8,11.1,16.8c8.5,0,11.6-5.3,11.6-16c0-9.7-2.1-14.4-11.4-21.2
		c-8.9-6.5-12.5-10.7-12.5-21.2c0-8.2,2.8-16.2,12.9-16.2c11.7,0,12.5,10.7,12.5,17.2v2.1h-2.5v-1.9c0-5.3-0.3-15.1-10.1-15.1
		c-7.3,0-10.2,5.5-10.2,13.8c0,9.2,2.4,12.6,10.7,18.7c9.7,7.1,13.2,12,13.2,23.8c0,11-3.3,18.4-14.1,18.4
		c-12.5,0-13.7-11.7-13.7-19v-1.6H391.5z"/>
	<path class="st0" d="M424.2,122.1l27-70.8h-24.1V49h26.7v1.8l-26.7,70.5h26.4l-0.4,2.2h-29V122.1z"/>
	<path class="st0" d="M463.7,84.7v18.6c0,13.2,3.4,19.3,11.4,19.3c9.8,0,11.3-7.9,11.3-18.4v-0.4h2.5v0.3c0,10.8-1.8,20.8-13.8,20.8
		c-11.4,0-14-8.5-14-21.8V68.6c0-12.9,4.2-20.8,14.3-20.8c9.9,0,13.8,7.4,13.8,20c0,4.2,0,12.6,0,16.8H463.7z M486.7,82.4V69.5
		c0-9.5-1.3-19.4-11.3-19.4c-9.5,0-11.7,8.6-11.7,19.6v12.8H486.7z"/>
	<path class="st0" d="M504.8,87.5h0.1c3.1-6.1,15.6-28.1,21.4-38.5h2.8l-15.3,27.2l17.4,47.4h-2.8l-16.2-45l-7.4,13.8v31.2h-2.5
		V20.7h2.5V87.5z"/>
</g>
</svg>
