<?xml version="1.0" encoding="UTF-8" standalone="no"?>
<!-- Created with Inkscape (http://www.inkscape.org/) -->

<svg
   xmlns:dc="http://purl.org/dc/elements/1.1/"
   xmlns:cc="http://creativecommons.org/ns#"
   xmlns:rdf="http://www.w3.org/1999/02/22-rdf-syntax-ns#"
   xmlns:svg="http://www.w3.org/2000/svg"
   xmlns="http://www.w3.org/2000/svg"
   xmlns:sodipodi="http://sodipodi.sourceforge.net/DTD/sodipodi-0.dtd"
   xmlns:inkscape="http://www.inkscape.org/namespaces/inkscape"
   width="196.66737mm"
   height="56.636276mm"
   viewBox="0 0 696.85293 200.67972"
   id="svg4848"
   version="1.1"
   inkscape:version="0.92.2 (5c3e80d, 2017-08-06)"
   sodipodi:docname="logo.svg">
  <defs
     id="defs4850" />
  <sodipodi:namedview
     id="base"
     pagecolor="#ffffff"
     bordercolor="#666666"
     borderopacity="1.0"
     inkscape:pageopacity="0.0"
     inkscape:pageshadow="2"
     inkscape:zoom="1.4"
     inkscape:cx="325.7113"
     inkscape:cy="172.29816"
     inkscape:document-units="px"
     inkscape:current-layer="layer1"
     showgrid="false"
     fit-margin-top="0"
     fit-margin-left="0"
     fit-margin-right="0"
     fit-margin-bottom="0"
     inkscape:window-width="2560"
     inkscape:window-height="1346"
     inkscape:window-x="-11"
     inkscape:window-y="-11"
     inkscape:window-maximized="1"
     showguides="true"
     inkscape:guide-bbox="true">
    <sodipodi:guide
       position="-242.41073,88.392858"
       orientation="1,0"
       id="guide1166"
       inkscape:locked="false" />
  </sodipodi:namedview>
  <metadata
     id="metadata4853">
    <rdf:RDF>
      <cc:Work
         rdf:about="">
        <dc:format>image/svg+xml</dc:format>
        <dc:type
           rdf:resource="http://purl.org/dc/dcmitype/StillImage" />
        <dc:title></dc:title>
      </cc:Work>
    </rdf:RDF>
  </metadata>
  <g
     inkscape:label="1. réteg"
     inkscape:groupmode="layer"
     id="layer1"
     transform="translate(-101.12318,-564.82553)">
    <path
       style="opacity:1;fill:#ffffff;fill-opacity:1;stroke:none;stroke-width:2.79901981;stroke-linecap:round;stroke-linejoin:round;stroke-miterlimit:4;stroke-dasharray:none;stroke-dashoffset:9.59999657;stroke-opacity:1"
       d="m 385.29659,740.12153 -43.96364,-25.38373 0.0884,-66.98535 0.0884,-66.98535 3.49878,-1.01147 c 6.11817,-1.76875 26.34599,-6.80837 33.23835,-8.28112 14.20659,-3.03563 27.33672,-5.17117 38.13665,-6.20271 8.0225,-0.76627 22.68235,-0.51721 31.09839,0.52833 18.80451,2.33612 45.44181,7.98772 66.51743,14.11296 l 2.79902,0.81348 v 67.11568 67.1157 l -37.96172,21.91552 c -20.87891,12.05354 -40.57499,23.42668 -43.76902,25.27366 l -5.80733,3.35813 z m 37.54597,15.27577 c 0.99246,-1.06529 0.95533,-3.0906 -0.0739,-4.0274 -1.4266,-1.29857 -9.9693,-6.08252 -11.22561,-6.28639 -1.01025,-0.16395 -1.39265,-0.0382 -2.13152,0.70061 -1.00108,1.00109 -1.19783,2.78548 -0.42006,3.80952 0.25195,0.33172 2.72669,1.93697 5.49945,3.56723 5.5719,3.27605 7.02138,3.66421 8.35157,2.23643 z m 23.48093,-3.62251 c 2.83882,-1.64381 5.328,-3.18935 5.53149,-3.43456 0.94427,-1.13777 0.3711,-3.68454 -0.99361,-4.4149 -1.25826,-0.67341 -2.15816,-0.35465 -7.11916,2.52167 -6.18011,3.58313 -6.68906,4.0512 -6.43825,5.92118 0.10329,0.77008 0.47666,1.61906 0.82973,1.8866 1.39672,1.05847 2.82678,0.62544 8.1898,-2.47999 z m -53.09642,-12.46304 c 0.42032,-0.22386 0.95603,-0.65685 1.19045,-0.96216 0.62549,-0.81468 0.53929,-2.64412 -0.16382,-3.47771 -0.33676,-0.39923 -2.81652,-2.01121 -5.51056,-3.5822 -5.50331,-3.20911 -7.04807,-3.60402 -8.25709,-2.11092 -0.71938,0.88838 -0.86865,2.50781 -0.32483,3.52397 0.48666,0.90934 10.84609,6.94621 12.01621,7.00235 0.15699,0.008 0.62932,-0.16947 1.04964,-0.39333 z m 81.49975,-4.01755 c 5.32844,-3.09521 6.07123,-3.67837 6.31595,-4.95856 0.30116,-1.57542 -1.21144,-3.53777 -2.73986,-3.55454 -0.88701,-0.0102 -10.9326,5.77268 -11.77073,6.77545 -1.62633,1.9458 0.11614,5.03137 2.59659,4.5981 0.52991,-0.0926 3.04903,-1.37977 5.59805,-2.86045 z m -109.16308,-13.459 c 0.7781,-0.93714 0.77431,-2.71528 -0.008,-3.67898 -0.73136,-0.90117 -10.11458,-6.34519 -11.10082,-6.44056 -1.37913,-0.13336 -1.90768,0.0243 -2.61045,0.77864 -0.83313,0.89427 -0.93205,2.61505 -0.20963,3.64646 0.43278,0.61788 6.10694,4.12308 9.99256,6.17287 1.46888,0.77488 3.05567,0.58202 3.93611,-0.47843 z m 137.5975,-3.13531 c 5.3576,-3.09535 6.30013,-3.81937 6.61732,-5.08318 0.24518,-0.97688 -0.55951,-2.75047 -1.393,-3.07031 -1.48031,-0.56805 -2.81117,-0.11835 -7.26005,2.45312 -5.63479,3.25698 -6.70348,4.26104 -6.41665,6.02863 0.23159,1.42709 1.36238,2.4776 2.67941,2.48922 0.48557,0.003 3.08341,-1.26358 5.77297,-2.81748 z M 350.27251,697.22456 c 0.85184,-0.85183 0.8588,-0.91298 0.8588,-7.53826 0,-6.62529 -0.007,-6.68645 -0.8588,-7.53828 -1.11569,-1.11568 -2.61013,-1.11601 -3.81345,-4.7e-4 l -0.9258,0.85788 v 6.61719 c 0,6.16466 0.0496,6.68024 0.72516,7.53906 0.97395,1.23818 2.81014,1.26704 4.01409,0.063 z m 162.44993,-3.41703 c 0.32944,-0.61556 0.41865,-2.51729 0.33751,-7.19351 -0.10081,-5.81131 -0.17046,-6.41683 -0.81127,-7.05683 -0.38554,-0.38505 -1.20583,-0.80107 -1.82283,-0.92446 -0.94628,-0.18925 -1.29169,-0.0544 -2.2068,0.86052 l -1.08491,1.08494 0.10874,6.61753 c 0.0963,5.86027 0.18295,6.69942 0.75738,7.33335 1.25223,1.38187 3.80525,0.99178 4.72218,-0.72154 z M 349.70677,664.33311 c 0.54443,-0.28153 1.08767,-0.76674 1.2072,-1.07824 0.11954,-0.31151 0.21734,-3.44499 0.21734,-6.96332 0,-5.9418 -0.0516,-6.46251 -0.72515,-7.31879 -1.02441,-1.30233 -3.12335,-1.30233 -4.14774,0 -0.67483,0.85787 -0.72516,1.37538 -0.72516,7.45547 0,6.79862 0.0777,7.19408 1.57446,8.01273 0.94369,0.51618 1.43146,0.49594 2.59905,-0.10785 z m 161.80325,-2.68241 c 1.47803,-0.67343 1.68181,-1.8116 1.5559,-8.68916 -0.11535,-6.3009 -0.12322,-6.35657 -0.99096,-7.02269 -1.7624,-1.35286 -4.21435,-0.56537 -4.73819,1.52175 -0.11416,0.45488 -0.15754,3.51681 -0.0964,6.80432 0.10736,5.77065 0.14054,6.00843 0.95941,6.87915 0.91613,0.97411 1.94022,1.13084 3.31021,0.50663 z M 350.27251,630.39796 c 0.85184,-0.85182 0.8588,-0.91298 0.8588,-7.53827 0,-6.62529 -0.007,-6.68645 -0.8588,-7.53826 -0.54132,-0.54136 -1.25854,-0.8588 -1.94024,-0.8588 -0.68168,0 -1.39887,0.31744 -1.9402,0.8588 -0.85126,0.85124 -0.85881,0.91686 -0.85881,7.47519 0,6.16383 0.0496,6.67944 0.72516,7.53825 0.97395,1.23817 2.81014,1.26702 4.01409,0.063 z m 162.01456,-2.88811 0.87845,-0.94786 -0.10794,-6.60552 -0.10793,-6.60551 -0.98168,-0.84368 c -1.32314,-1.13714 -2.51729,-1.07223 -3.79585,0.20629 l -1.04995,1.04999 0.11471,6.67882 c 0.11219,6.53172 0.13292,6.69355 0.94071,7.3471 1.22886,0.99421 3.04334,0.87074 4.10948,-0.27963 z m -162.5803,-30.00333 c 1.3183,-0.68174 1.42454,-1.06312 1.42454,-5.11478 0,-2.89671 0.0893,-3.47017 0.54072,-3.47017 0.2974,0 0.92717,-0.38645 1.39949,-0.8588 1.12739,-1.12735 1.16049,-2.94475 0.0716,-3.9302 -1.12522,-1.01833 -2.10176,-1.15848 -4.0642,-0.58321 -1.3055,0.38271 -1.94331,0.82345 -2.63412,1.8203 -0.86363,1.24623 -0.91126,1.54404 -0.90675,5.67 0.003,2.39504 0.0965,4.69656 0.2086,5.11444 0.11208,0.41792 0.70036,1.00474 1.30725,1.30409 1.36864,0.67505 1.43848,0.67632 2.65289,0.0483 z m 161.78833,-2.67561 c 1.25948,-0.57387 1.63008,-1.74628 1.62428,-5.13858 -0.004,-2.92139 -0.0512,-3.09903 -1.1371,-4.37691 -0.9383,-1.10411 -1.6063,-1.46841 -3.90549,-2.12985 -3.86862,-1.11293 -5.66171,-0.6257 -6.02909,1.63827 -0.31246,1.9255 0.48839,2.88785 2.98654,3.5888 l 2.0654,0.57952 0.14557,2.28605 c 0.12514,1.96536 0.28054,2.40214 1.10766,3.1136 1.06184,0.91337 1.85734,1.02453 3.14223,0.4391 z M 378.72456,582.01202 c 6.41002,-1.46703 7.39449,-2.00408 7.39449,-4.0339 0,-1.24313 -0.96176,-2.43953 -2.27421,-2.829 -0.38486,-0.11422 -3.37144,0.40362 -6.63684,1.15075 -5.09236,1.16516 -6.05064,1.49045 -6.73515,2.28623 -1.6065,1.86768 -0.45548,4.58009 1.99868,4.70981 0.28738,0.0153 3.10125,-0.56256 6.25303,-1.28389 z m 106.3817,-4.8e-4 c 0.41204,-0.33675 0.83923,-1.17518 0.94932,-1.86315 0.15902,-0.99387 0.031,-1.4435 -0.62295,-2.1887 -0.70495,-0.80326 -1.61169,-1.11329 -6.31843,-2.16045 -6.744,-1.50041 -7.68002,-1.53293 -8.64929,-0.30073 -0.94505,1.20145 -0.9209,2.66861 0.0621,3.76912 0.64582,0.72304 1.72987,1.09543 6.03538,2.07325 6.16587,1.40032 7.52097,1.50667 8.54388,0.67066 z m -74.32086,-5.86645 c 2.69408,-0.3103 5.25656,-0.63665 5.69442,-0.72525 2.22918,-0.45104 3.02399,-3.62542 1.25595,-5.01617 -0.50703,-0.39882 -1.43458,-0.72514 -2.0612,-0.72514 -2.50152,0 -11.4928,1.4048 -12.27607,1.91801 -0.94578,0.61969 -1.3605,1.88383 -1.03868,3.16607 0.24725,0.98512 2.18429,2.34122 3.00133,2.10117 0.28928,-0.0849 2.7302,-0.40841 5.42425,-0.71869 z m 42.01061,-0.5466 c 0.77624,-0.85773 0.88376,-3.1111 0.1884,-3.94894 -0.65279,-0.78657 -2.23938,-1.1435 -7.9633,-1.79145 -5.18725,-0.58723 -6.36437,-0.5083 -7.26522,0.48713 -1.01427,1.12074 -1.05964,2.61282 -0.11293,3.71344 0.80543,0.93634 1.14532,1.03049 5.71785,1.58376 7.05597,0.85377 8.62942,0.84645 9.4352,-0.0439 z"
       id="path936"
       inkscape:connector-curvature="0" />
    <g
       id="g1164"
       transform="translate(-22.098215)"
       style="fill:#ffffff">
      <g
         id="flowRoot4741"
         style="font-style:normal;font-weight:normal;line-height:0.01%;font-family:sans-serif;letter-spacing:0px;word-spacing:0px;fill:#ffffff;fill-opacity:1;stroke:none;stroke-width:1px;stroke-linecap:butt;stroke-linejoin:miter;stroke-opacity:1"
         transform="matrix(0.68233706,0,0,0.68233706,566.19093,217.11462)"
         aria-label="sufni ">
        <path
           inkscape:connector-curvature="0"
           id="path1126"
           style="font-style:normal;font-variant:normal;font-weight:normal;font-stretch:condensed;font-size:250px;line-height:1.25;font-family:'Happy Fox';-inkscape-font-specification:'Happy Fox Condensed';fill:#ffffff;fill-opacity:1"
           d="m -648.42969,694.04102 c 3.25,-2.75 6,-5.75 11.5,-5.75 6.75,0 11,20.75 15.75,15.25 4.25,-10.75 0.75,-24 -1,-36.25 -1.75,-12 -14.5,-82.75 -18.75,-95.5 -5.5,-16.75 0.5,-35 16.5,-37.5 13.5,-1.75 21.75,5 25.5,15.75 1.25,3.5 2.75,7 0.5,9.75 -3.25,1.75 -5,3.5 -7.25,2.75 -11.75,-3.75 -6.75,-15 -14.5,-8.5 -4.5,3.75 0,25.25 1.25,30.25 3.25,15 8.75,32.5 11.25,52.25 2.5,18.75 5.75,39 7,55.75 0.75,7.5 -0.25,14.75 -2.25,18.75 -4.5,9.75 -18,14.75 -29.75,9 -3.75,-1.75 -13.25,-10.25 -15.25,-16 -1,-3 -2,-6.5 -0.5,-10 z" />
        <path
           inkscape:connector-curvature="0"
           id="path1128"
           style="font-style:normal;font-variant:normal;font-weight:normal;font-stretch:condensed;font-size:250px;line-height:1.25;font-family:'Happy Fox';-inkscape-font-specification:'Happy Fox Condensed';fill:#ffffff;fill-opacity:1"
           d="m -590.00391,536.79102 c 2.75,-4.25 13.75,-3.75 13.75,2.25 2,24 2.5,52.75 2.5,82.25 0,26 -5.75,58.5 4.25,77 2.5,4.75 6.5,5.75 9.5,4.75 11,-4.5 10,-27.25 10,-53.5 0,-12 -2.25,-103 3,-112.5 2.75,-4.75 14.5,0.75 15.25,3.25 1.75,11.75 1.75,28.75 1.75,46 0,32.5 2,74.5 -3.25,102 -2,10.5 -4.75,20.5 -10.5,27 -14.25,15.75 -36.5,6.25 -43.75,-11.75 -2,-2.75 -2.75,-6.75 -3.25,-8.5 -1.25,-4.25 -1.75,-11.75 -2,-17 -1.25,-14.5 -0.75,-30.5 0,-46.75 0.25,-11.5 0.75,-23.5 0.5,-35 -0.5,-19 2,-34.75 0.75,-52.75 0,-2.25 0.25,-4.75 1.5,-6.75 z" />
        <path
           inkscape:connector-curvature="0"
           id="path1130"
           style="font-style:normal;font-variant:normal;font-weight:normal;font-stretch:condensed;font-size:250px;line-height:1.25;font-family:'Happy Fox';-inkscape-font-specification:'Happy Fox Condensed';fill:#ffffff;fill-opacity:1"
           d="m -471.34766,544.54102 c 1.5,12.75 -25.5,11.5 -34.75,13.25 -1.25,9.75 0.75,18.75 1.5,28.25 4,0 12,0.25 14,5.5 1,10.25 -8.5,9.5 -12,10.75 -0.5,26.25 5,56.5 6.25,85 0.5,11.75 3.75,29 -1.75,32.25 -19.5,11.5 -17,-10.75 -24.75,-146.75 -1,-14.5 -6,-28 4.25,-31 5.5,-0.25 9.25,0.75 14.25,-0.25 10.75,-2.25 31.75,-7.5 33,3 z" />
        <path
           inkscape:connector-curvature="0"
           id="path1132"
           style="font-style:normal;font-variant:normal;font-weight:normal;font-stretch:condensed;font-size:250px;line-height:1.25;font-family:'Happy Fox';-inkscape-font-specification:'Happy Fox Condensed';fill:#ffffff;fill-opacity:1"
           d="m -444.26562,541.79102 c 3.75,9.75 18.5,84.5 20.5,97.75 l -2.5,-82.5 c -0.25,-9.5 2.5,-20 9.25,-17.5 8,-1.5 7.75,7 7.75,13 -0.5,17.5 1.75,40 0.5,60.25 -2.25,37 0.75,75 -4.75,106.25 -1.25,6.25 -11.5,5.75 -13.5,-10 -0.5,-4.25 -3.75,-22.75 -3.75,-28.5 0,-7.25 -13.25,-65.5 -13.5,-66.25 -1.25,-4.75 -0.75,-7.75 -3.25,-13.5 0,4.5 -0.75,78.5 -0.75,84 0,15.25 1.5,37.5 -11.25,36.75 -8.25,-0.5 -5.75,-13.5 -5.5,-24 0.25,-7 0,-14.5 0,-20 -0.75,-29.5 2,-71.25 2,-100.25 0,-13 -0.5,-27 2.5,-38.75 2.5,-4 10,-6.25 16.25,3.25 z" />
        <path
           inkscape:connector-curvature="0"
           id="path1134"
           style="font-style:normal;font-variant:normal;font-weight:normal;font-stretch:condensed;font-size:250px;line-height:1.25;font-family:'Happy Fox';-inkscape-font-specification:'Happy Fox Condensed';fill:#ffffff;fill-opacity:1"
           d="m -378.13281,715.04102 c 0,6.25 -2.5,5.75 -3,6 -4.5,2.25 -8,0.5 -9.25,-1 -5.5,-5.5 -5,-15.75 -4.75,-25.25 0.5,-37 2.25,-89.5 2.25,-124.75 0.25,-13.25 -2.75,-25 6.75,-28.75 5.25,-2.5 7.75,4.25 8.5,10 2.75,15.75 1,34.25 1.5,48.75 1.5,36.5 -4,78.25 -2,115 z" />
      </g>
    </g>
    <flowRoot
       inkscape:export-ydpi="173.41275"
       inkscape:export-xdpi="173.41275"
       transform="matrix(0.86698504,0,0,0.86698504,329.52402,-752.26583)"
       xml:space="preserve"
       id="flowRoot976"
       style="font-style:normal;font-weight:normal;line-height:0.01%;font-family:sans-serif;letter-spacing:0px;word-spacing:0px;fill:#ffffff;fill-opacity:1;stroke:none;stroke-width:1px;stroke-linecap:butt;stroke-linejoin:miter;stroke-opacity:1"><flowRegion
         id="flowRegion972"
         style="fill:#ffffff"><rect
           id="rect970"
           width="663.38342"
           height="587.56818"
           x="-649.42877"
           y="491.29065"
           style="fill:#ffffff" /></flowRegion><flowPara
         id="flowPara974"
         style="font-style:normal;font-variant:normal;font-weight:normal;font-stretch:normal;font-size:250px;line-height:1.25;font-family:'Open Sans';-inkscape-font-specification:'Open Sans';fill:#ffffff">TEXTIL </flowPara></flowRoot>    <g
       aria-label="TEXTIL"
       transform="matrix(0.66616123,0,0,0.66616123,987.6487,225.3502)"
       style="font-style:normal;font-weight:normal;line-height:0.01%;font-family:sans-serif;letter-spacing:-0.19650982px;word-spacing:0px;fill:#ffffff;fill-opacity:1;stroke:none;stroke-width:1px;stroke-linecap:butt;stroke-linejoin:miter;stroke-opacity:1"
       id="flowRoot1018">
      <g
         id="g1156"
         style="fill:#ffffff">
        <path
           inkscape:connector-curvature="0"
           id="path1137"
           style="font-style:normal;font-variant:normal;font-weight:normal;font-stretch:condensed;font-size:250px;line-height:1.25;font-family:'Happy Fox';-inkscape-font-specification:'Happy Fox Condensed';letter-spacing:-0.19650982px;fill:#ffffff;fill-opacity:1"
           d="m -584.42969,556.79102 c -5.75,2.75 -20,-3 -20,1 -5.5,37.5 -0.75,89.5 -3.5,134.75 -0.5,11.75 3.75,35.75 -11.5,28.75 -9,-4 -7.25,-22 -6.75,-35.5 0.5,-8 -0.5,-15.5 -0.5,-22.25 0,-36 1.25,-73 3.25,-104.25 0,-4.5 -11.5,0.25 -16.5,-1 -4.25,-1.25 -9.75,-5.75 -9.5,-10.5 1,-14.25 47,-9.5 58,-9 11,1.75 11.25,18 7,18 z" />
        <path
           inkscape:connector-curvature="0"
           id="path1139"
           style="letter-spacing:-1.60780752px;fill:#ffffff"
           d="m -561.7551,559.79102 c -0.25,20 4,41 3.75,61.5 6.75,1.25 13,2.5 11.75,9.25 -0.75,5 -5,6 -10,7.75 2.5,23 2.25,46.75 5.5,69 8.25,-2.25 19.25,-2.5 25.75,0.75 3.5,2 -0.25,11.75 -3.5,11.75 -11.25,1.25 -22.5,2.25 -33.25,3 -7.5,0 -7.75,-10.75 -7.75,-12.75 -0.75,-8.75 -5.75,-84.75 -6.75,-109.5 -0.5,-11.5 -1.75,-22.75 -2.75,-32.75 -1,-11.5 0,-18.75 6.75,-22.25 5.75,-3 22.25,-4.25 29.75,-5.5 9,-1.5 14.5,3.75 10.75,10.25 -6,10 -20,2.75 -30,9.5 z" />
        <path
           inkscape:connector-curvature="0"
           id="path1141"
           style="letter-spacing:-1.60780752px;fill:#ffffff"
           d="m -478.12463,595.29102 c 7,-19.5 11,-42.25 20.75,-59.25 3.75,-5.25 5.75,-4.5 10,-2 2,1 3.25,3.75 4.25,6 3.75,7.5 -24.5,72.75 -25.25,80 0,1.25 20.25,71.25 24.5,83 2.5,6.75 5.5,12.25 2,18.25 -3.25,-0.5 -6.25,3.5 -11.25,1.5 -7.75,-4.75 -10,-16.25 -13,-26 -4,-14.75 -7,-35 -12.25,-48.25 0,6.5 -4.25,14.25 -5.75,19 -1.75,5 -3.75,9.75 -5.5,14.75 -5.5,14.25 -7.5,31.25 -20.25,37.75 -2.5,0.75 -4.75,1.25 -4.75,-0.5 -2,-2.25 -2,-3.25 -3,-4.25 -4.5,-5 1.5,-11.5 4,-17.25 4.75,-11.5 25.25,-76 25.25,-76.75 0.25,-3.5 -17.25,-46 -21.75,-57 -2,-5.75 -5.75,-15.25 -5.25,-20.75 0,-4.75 5.75,-11 12,-7.25 4.25,2 5.5,11.25 7,14.75 5.75,14 12.5,31.75 18.25,44.25 z" />
        <path
           inkscape:connector-curvature="0"
           id="path1143"
           style="letter-spacing:-2.94764733px;fill:#ffffff"
           d="m -373.48634,556.79102 c -5.75,2.75 -20,-3 -20,1 -5.5,37.5 -0.75,89.5 -3.5,134.75 -0.5,11.75 3.75,35.75 -11.5,28.75 -9,-4 -7.25,-22 -6.75,-35.5 0.5,-8 -0.5,-15.5 -0.5,-22.25 0,-36 1.25,-73 3.25,-104.25 0,-4.5 -11.5,0.25 -16.5,-1 -4.25,-1.25 -9.75,-5.75 -9.5,-10.5 1,-14.25 47,-9.5 58,-9 11,1.75 11.25,18 7,18 z" />
        <path
           inkscape:connector-curvature="0"
           id="path1145"
           style="font-style:normal;font-variant:normal;font-weight:normal;font-stretch:condensed;font-size:250px;line-height:1.25;font-family:'Happy Fox';-inkscape-font-specification:'Happy Fox Condensed';letter-spacing:-0.19650982px;fill:#ffffff;fill-opacity:1"
           d="m -350.3129,715.04102 c 0,6.25 -2.5,5.75 -3,6 -4.5,2.25 -8,0.5 -9.25,-1 -5.5,-5.5 -5,-15.75 -4.75,-25.25 0.5,-37 2.25,-89.5 2.25,-124.75 0.25,-13.25 -2.75,-25 6.75,-28.75 5.25,-2.5 7.75,4.25 8.5,10 2.75,15.75 1,34.25 1.5,48.75 1.5,36.5 -4,78.25 -2,115 z" />
        <path
           inkscape:connector-curvature="0"
           id="path1147"
           style="font-style:normal;font-variant:normal;font-weight:normal;font-stretch:condensed;font-size:250px;line-height:1.25;font-family:'Happy Fox';-inkscape-font-specification:'Happy Fox Condensed';letter-spacing:-0.19650982px;fill:#ffffff;fill-opacity:1"
           d="m -320.54456,700.79102 c -0.75,5 33.5,2 35.5,8.25 1.25,7.25 -1.25,12.25 -6,12.25 -14.25,0.75 -36.25,-2.5 -40.5,-2.5 -11.5,0 -6.5,-49.5 -6.25,-64.25 1.75,-24 1.25,-50.5 1.25,-75.75 0,-14.75 -4.25,-38.75 2.5,-40 12.25,-6.5 13,14.75 13.5,25 3.5,45.75 -3.25,92.5 0,137 z" />
      </g>
    </g>
  </g>
</svg>
