<?xml version="1.0" encoding="UTF-8" standalone="no"?>
<!-- Created with Inkscape (http://www.inkscape.org/) -->

<svg
   xmlns:dc="http://purl.org/dc/elements/1.1/"
   xmlns:cc="http://creativecommons.org/ns#"
   xmlns:rdf="http://www.w3.org/1999/02/22-rdf-syntax-ns#"
   xmlns:svg="http://www.w3.org/2000/svg"
   xmlns="http://www.w3.org/2000/svg"
   xmlns:sodipodi="http://sodipodi.sourceforge.net/DTD/sodipodi-0.dtd"
   xmlns:inkscape="http://www.inkscape.org/namespaces/inkscape"
   width="146.61703mm"
   height="43.522282mm"
   viewBox="0 0 519.50921 154.21281"
   id="svg4848"
   version="1.1"
   inkscape:version="0.92.2 (5c3e80d, 2017-08-06)"
   sodipodi:docname="logo.svg">
  <defs
     id="defs4850" />
  <sodipodi:namedview
     id="base"
     pagecolor="#ffffff"
     bordercolor="#666666"
     borderopacity="1.0"
     inkscape:pageopacity="0.0"
     inkscape:pageshadow="2"
     inkscape:zoom="1.4"
     inkscape:cx="100.66127"
     inkscape:cy="119.12118"
     inkscape:document-units="px"
     inkscape:current-layer="layer1"
     showgrid="false"
     fit-margin-top="0"
     fit-margin-left="0"
     fit-margin-right="0"
     fit-margin-bottom="0"
     inkscape:window-width="2560"
     inkscape:window-height="1346"
     inkscape:window-x="-11"
     inkscape:window-y="-11"
     inkscape:window-maximized="1"
     inkscape:pagecheckerboard="true" />
  <metadata
     id="metadata4853">
    <rdf:RDF>
      <cc:Work
         rdf:about="">
        <dc:format>image/svg+xml</dc:format>
        <dc:type
           rdf:resource="http://purl.org/dc/dcmitype/StillImage" />
        <dc:title></dc:title>
      </cc:Work>
    </rdf:RDF>
  </metadata>
  <g
     inkscape:label="1. réteg"
     inkscape:groupmode="layer"
     id="layer1"
     transform="translate(-182.50777,-594.12397)">
    <path
       style="opacity:1;fill:#ffffff;fill-opacity:1;stroke:none;stroke-width:2.17613244;stroke-linecap:round;stroke-linejoin:round;stroke-miterlimit:4;stroke-dasharray:none;stroke-dashoffset:9.59999657;stroke-opacity:1"
       d="M 272.12109 1.0019531 C 257.21151 0.98111313 231.75227 5.4349714 205.79883 12.675781 L 200.83398 14.060547 L 200.90234 68.320312 L 200.9707 122.58008 L 236.19727 142.95117 C 258.22602 155.69025 271.62659 163.28665 271.9668 163.22852 C 272.26602 163.1774 288.30199 154.01033 307.60156 142.85742 L 342.69141 122.58008 L 342.75977 68.320312 L 342.82812 14.060547 L 337.86328 12.675781 C 313.78151 5.9586934 291.41083 1.8284638 274.95898 1.0644531 C 274.06177 1.0227871 273.11507 1.0033425 272.12109 1.0019531 z M 279.39258 16.550781 L 280.7168 16.664062 L 280.75195 16.666016 L 283.05859 16.90625 L 283.08984 16.908203 L 285.42969 17.189453 L 285.45898 17.193359 L 287.20312 17.429688 L 287.60156 17.529297 L 288.50195 18.201172 L 288.88281 19.265625 L 288.61719 20.363281 L 287.79297 21.128906 L 286.68555 21.308594 L 284.9707 21.076172 L 282.64258 20.796875 L 282.63086 20.794922 L 280.39062 20.5625 L 280.38086 20.560547 L 279.06641 20.449219 L 278.66406 20.371094 L 277.73242 19.744141 L 277.29883 18.701172 L 277.50977 17.589844 L 278.29688 16.783203 L 279.39258 16.550781 z M 262.33398 16.722656 L 262.74414 16.724609 L 263.77539 17.167969 L 264.39258 18.111328 L 264.38867 19.242188 L 263.76562 20.181641 L 262.73047 20.617188 L 261.03125 20.792969 L 261.01953 20.794922 L 258.69336 21.074219 L 256.38281 21.388672 L 255.11328 21.578125 L 254.70312 21.59375 L 253.65234 21.199219 L 252.99414 20.283203 L 252.94727 19.154297 L 253.5293 18.1875 L 254.54297 17.705078 L 255.81445 17.515625 L 255.83984 17.513672 L 258.20312 17.191406 L 258.23242 17.189453 L 260.57031 16.908203 L 260.60352 16.904297 L 262.33398 16.722656 z M 302.63477 20.15625 L 304.43164 20.537109 L 304.44531 20.539062 L 306.68359 21.03125 L 306.69727 21.033203 L 308.87891 21.527344 L 308.89062 21.53125 L 310.25781 21.849609 L 310.64453 21.984375 L 311.47852 22.740234 L 311.75977 23.833984 L 311.39258 24.902344 L 310.50195 25.587891 L 309.38281 25.662109 L 308.02734 25.345703 L 308.01562 25.34375 L 305.8457 24.851562 L 303.63477 24.367188 L 303.62109 24.365234 L 301.83984 23.988281 L 301.44922 23.861328 L 300.59961 23.123047 L 300.29688 22.035156 L 300.64062 20.958984 L 301.51758 20.253906 L 302.63477 20.15625 z M 239.55273 20.511719 L 240.62695 20.835938 L 241.34375 21.705078 L 241.46484 22.828125 L 240.94922 23.832031 L 239.96875 24.380859 L 237.81641 24.853516 L 235.64648 25.34375 L 235.63281 25.347656 L 233.52734 25.837891 L 232.43359 26.101562 L 232.02734 26.154297 L 230.94531 25.851562 L 230.21289 24.996094 L 230.07031 23.875 L 230.56445 22.861328 L 231.53516 22.294922 L 232.64062 22.029297 L 232.65234 22.025391 L 234.77148 21.53125 L 234.7832 21.527344 L 236.96484 21.033203 L 236.97852 21.03125 L 239.14453 20.554688 L 239.55273 20.511719 z M 325.38086 25.734375 L 325.8125 25.853516 L 325.82617 25.857422 L 327.65039 26.378906 L 327.66602 26.382812 L 329.21094 26.835938 L 330.60938 28.714844 L 330.60938 32.556641 L 330.56641 32.96875 L 330.02344 33.957031 L 329.0293 34.480469 L 327.91406 34.361328 L 327.05078 33.638672 L 326.72656 32.556641 L 326.72656 30.183594 L 326.59375 30.144531 L 324.7832 29.626953 L 324.76953 29.623047 L 324.35156 29.507812 L 323.9707 29.357422 L 323.16797 28.566406 L 322.93164 27.462891 L 323.3418 26.410156 L 324.25977 25.761719 L 325.38086 25.734375 z M 216.83398 26.1875 L 217.92578 26.445312 L 218.69531 27.267578 L 218.88477 28.380859 L 218.43164 29.416016 L 217.48633 30.023438 L 217.06641 30.144531 L 216.93555 30.181641 L 216.93555 34.480469 L 216.89062 34.892578 L 216.34961 35.880859 L 215.35547 36.404297 L 214.24023 36.283203 L 213.37695 35.5625 L 213.05273 34.480469 L 213.05273 28.714844 L 214.45117 26.835938 L 215.99609 26.382812 L 216.00977 26.378906 L 216.42969 26.257812 L 216.83398 26.1875 z M 328.30664 46.289062 L 329.42188 46.408203 L 330.28516 47.130859 L 330.60938 48.212891 L 330.60938 56.039062 L 330.56445 56.451172 L 330.02344 57.439453 L 329.0293 57.960938 L 327.91406 57.84375 L 327.05078 57.121094 L 326.72656 56.039062 L 326.72656 48.212891 L 326.76953 47.800781 L 327.3125 46.810547 L 328.30664 46.289062 z M 214.63281 48.212891 L 215.74805 48.332031 L 216.61133 49.052734 L 216.93555 50.134766 L 216.93555 57.962891 L 216.89258 58.375 L 216.34961 59.363281 L 215.35547 59.886719 L 214.24023 59.765625 L 213.37695 59.044922 L 213.05273 57.962891 L 213.05273 50.134766 L 213.0957 49.724609 L 213.63867 48.734375 L 214.63281 48.212891 z M 328.30664 69.771484 L 329.42188 69.890625 L 330.28516 70.611328 L 330.60938 71.693359 L 330.60938 79.521484 L 330.56445 79.933594 L 330.02344 80.921875 L 329.0293 81.445312 L 327.91406 81.324219 L 327.05078 80.603516 L 326.72656 79.521484 L 326.72656 71.693359 L 326.76953 71.283203 L 327.3125 70.292969 L 328.30664 69.771484 z M 214.63281 71.695312 L 215.74805 71.814453 L 216.61133 72.535156 L 216.93555 73.617188 L 216.93555 81.445312 L 216.89258 81.855469 L 216.34961 82.845703 L 215.35547 83.367188 L 214.24023 83.248047 L 213.37695 82.527344 L 213.05273 81.445312 L 213.05273 73.617188 L 213.0957 73.207031 L 213.63867 72.216797 L 214.63281 71.695312 z M 328.30664 93.253906 L 329.42188 93.373047 L 330.28516 94.09375 L 330.60938 95.175781 L 330.60938 103.00391 L 330.56445 103.41602 L 330.02344 104.4043 L 329.0293 104.92773 L 327.91406 104.80664 L 327.05078 104.08594 L 326.72656 103.00391 L 326.72656 95.175781 L 326.76953 94.765625 L 327.3125 93.775391 L 328.30664 93.253906 z M 214.63281 95.177734 L 215.74805 95.296875 L 216.61133 96.017578 L 216.93555 97.099609 L 216.93555 104.92773 L 216.89258 105.33789 L 216.34961 106.32812 L 215.35547 106.84961 L 214.24023 106.73047 L 213.37695 106.00977 L 213.05273 104.92773 L 213.05273 97.099609 L 213.0957 96.689453 L 213.63867 95.699219 L 214.63281 95.177734 z M 326.97461 115.48438 L 327.92188 116.0918 L 328.37695 117.125 L 328.1875 118.23828 L 327.41992 119.0625 L 320.69531 122.97656 L 320.32227 123.14453 L 319.20117 123.16602 L 318.25391 122.55859 L 317.80078 121.52539 L 317.98828 120.41211 L 318.75586 119.58789 L 325.47852 115.67383 L 325.85352 115.50586 L 326.97461 115.48438 z M 218.74219 116.37695 L 219.83398 116.63477 L 226.55859 120.54883 L 226.89062 120.79297 L 227.46875 121.75977 L 227.41992 122.88867 L 226.75977 123.80273 L 225.70898 124.19727 L 224.61719 123.93945 L 217.89258 120.02539 L 217.5625 119.78125 L 216.98242 118.8125 L 217.03125 117.68359 L 217.69141 116.76953 L 218.74219 116.37695 z M 306.80273 127.22461 L 307.74805 127.83203 L 308.20312 128.86523 L 308.01562 129.98047 L 307.24805 130.80469 L 300.52344 134.71875 L 300.14844 134.88672 L 299.0293 134.9082 L 298.08203 134.29883 L 297.62695 133.26758 L 297.81445 132.15234 L 298.58398 131.32812 L 305.30664 127.41406 L 305.68164 127.24609 L 306.80273 127.22461 z M 238.91602 128.11719 L 240.00781 128.37695 L 246.73047 132.28906 L 247.0625 132.5332 L 247.64062 133.50195 L 247.59375 134.63086 L 246.93359 135.54492 L 245.88086 135.9375 L 244.79102 135.67969 L 238.06641 131.76562 L 237.73438 131.52148 L 237.15625 130.55469 L 237.20508 129.42578 L 237.86328 128.51172 L 238.91602 128.11719 z M 286.63086 138.9668 L 287.57617 139.57422 L 288.03125 140.60742 L 287.84375 141.7207 L 287.07617 142.54492 L 280.35156 146.45898 L 279.97656 146.62695 L 278.85547 146.64844 L 277.91016 146.04102 L 277.45508 145.00781 L 277.64258 143.89453 L 278.41016 143.07031 L 285.13477 139.15625 L 285.50977 138.98828 L 286.63086 138.9668 z M 259.08789 139.85938 L 260.17969 140.11719 L 266.9043 144.03125 L 267.23438 144.27539 L 267.81445 145.24219 L 267.76562 146.37305 L 267.10547 147.28516 L 266.05469 147.67969 L 264.96289 147.42188 L 258.23828 143.50781 L 257.90625 143.26367 L 257.32812 142.29492 L 257.37695 141.16602 L 258.03711 140.25195 L 259.08789 139.85938 z "
       transform="matrix(0.93750002,0,0,0.93750002,182.50777,594.12397)"
       id="path1505" />
    <flowRoot
       inkscape:export-ydpi="173.41275"
       inkscape:export-xdpi="173.41275"
       transform="matrix(0.86698504,0,0,0.86698504,329.52402,-752.26583)"
       xml:space="preserve"
       id="flowRoot976"
       style="font-style:normal;font-weight:normal;line-height:0.01%;font-family:sans-serif;letter-spacing:0px;word-spacing:0px;fill:#ffffff;fill-opacity:1;stroke:none;stroke-width:1px;stroke-linecap:butt;stroke-linejoin:miter;stroke-opacity:1"><flowRegion
         id="flowRegion972"
         style="fill:#ffffff"><rect
           id="rect970"
           width="663.38342"
           height="587.56818"
           x="-649.42877"
           y="491.29065"
           style="fill:#ffffff" /></flowRegion><flowPara
         id="flowPara974"
         style="font-style:normal;font-variant:normal;font-weight:normal;font-stretch:normal;font-size:250px;line-height:1.25;font-family:'Open Sans';-inkscape-font-specification:'Open Sans';fill:#ffffff">TEXTIL </flowPara></flowRoot>    <g
       aria-label="SUFNI"
       transform="matrix(2.8563114,0,0,2.8563114,277.79254,32.330142)"
       style="font-style:normal;font-variant:normal;font-weight:normal;font-stretch:normal;font-size:39.99994659px;line-height:125%;font-family:'Poiret One';-inkscape-font-specification:'Poiret One, Normal';font-variant-ligatures:normal;font-variant-caps:normal;font-variant-numeric:normal;font-feature-settings:normal;text-align:start;letter-spacing:0px;word-spacing:0px;writing-mode:lr-tb;text-anchor:start;fill:#ffffff;fill-opacity:1;stroke:none;stroke-width:1px;stroke-linecap:butt;stroke-linejoin:miter;stroke-opacity:1"
       id="flowRoot1452">
      <path
         d="m -24.121108,208.83809 q -1.640623,-0.87891 -2.949215,-0.87891 -1.308592,0 -2.246091,0.9375 -0.917967,0.9375 -0.917967,2.26562 0,0.9375 0.546874,2.01172 0.546874,1.05468 2.480465,3.39843 1.953123,2.32422 2.968746,4.04296 1.035155,1.71875 1.035155,3.94531 0,2.77344 -1.679685,4.51171 -1.660154,1.71875 -4.355463,1.71875 -1.484373,0 -3.632808,-0.8789 V 226.924 q 0.05859,0.0195 0.117188,0.0586 0.292968,0.21485 1.230467,0.66406 0.937499,0.42969 1.835935,0.42969 1.464842,0 2.40234,-0.97656 0.95703,-0.97656 0.95703,-2.5 0,-1.05468 -0.48828,-1.95312 -0.46875,-0.89843 -1.738279,-2.4414 l -2.246091,-2.7539 q -1.308592,-1.60156 -1.933591,-2.92969 -0.624999,-1.32812 -0.624999,-3.16406 0,-2.71484 1.582029,-4.41405 1.582029,-1.69922 4.101557,-1.69922 1.75781,0 3.554683,0.87891 z"
         style="font-style:normal;font-variant:normal;font-weight:normal;font-stretch:normal;font-size:39.99994659px;font-family:'Tw Cen MT Condensed';-inkscape-font-specification:'Tw Cen MT Condensed, Normal';font-variant-ligatures:normal;font-variant-caps:normal;font-variant-numeric:normal;font-feature-settings:normal;text-align:start;letter-spacing:-1.44298589px;writing-mode:lr-tb;text-anchor:start;fill:#ffffff"
         id="path1508" />
      <path
         d="m -8.9234909,224.63885 q 0,6.23046 -5.5859301,6.23046 -6.132804,0 -6.132804,-6.1914 v -19.00388 h 3.320308 v 17.59763 q 0,2.83203 0.48828,3.92578 0.488281,1.07421 2.128904,1.07421 1.640623,0 2.050778,-1.13281 0.410156,-1.15234 0.410156,-4.06249 v -17.40232 h 3.3203081 z"
         style="font-style:normal;font-variant:normal;font-weight:normal;font-stretch:normal;font-size:39.99994659px;font-family:'Tw Cen MT Condensed';-inkscape-font-specification:'Tw Cen MT Condensed, Normal';font-variant-ligatures:normal;font-variant-caps:normal;font-variant-numeric:normal;font-feature-settings:normal;text-align:start;letter-spacing:-1.44298589px;writing-mode:lr-tb;text-anchor:start;fill:#ffffff"
         id="path1510" />
      <path
         d="m 3.5592857,208.48652 h -5.7226486 v 7.83202 h 5.1171806 v 2.83203 h -5.1171806 v 11.36717 H -5.483671 v -24.88277 h 9.0429567 z"
         style="font-style:normal;font-variant:normal;font-weight:normal;font-stretch:normal;font-size:39.99994659px;font-family:'Tw Cen MT Condensed';-inkscape-font-specification:'Tw Cen MT Condensed, Normal';font-variant-ligatures:normal;font-variant-caps:normal;font-variant-numeric:normal;font-feature-settings:normal;text-align:start;letter-spacing:-1.44298589px;writing-mode:lr-tb;text-anchor:start;fill:#ffffff"
         id="path1512" />
      <path
         d="M 17.838936,230.51774 H 15.20222 L 8.8545725,213.44745 h -0.078125 v 17.07029 H 5.7686392 v -24.88277 h 2.6757776 l 6.3671792,17.08982 h 0.07813 v -17.08982 h 2.949215 z"
         style="font-style:normal;font-variant:normal;font-weight:normal;font-stretch:normal;font-size:39.99994659px;font-family:'Tw Cen MT Condensed';-inkscape-font-specification:'Tw Cen MT Condensed, Normal';font-variant-ligatures:normal;font-variant-caps:normal;font-variant-numeric:normal;font-feature-settings:normal;text-align:start;letter-spacing:-1.44298589px;writing-mode:lr-tb;text-anchor:start;fill:#ffffff"
         id="path1514" />
      <path
         d="m 21.845161,205.63497 h 3.35937 v 24.88277 h -3.35937 z"
         style="font-style:normal;font-variant:normal;font-weight:normal;font-stretch:normal;font-size:39.99994659px;font-family:'Tw Cen MT Condensed';-inkscape-font-specification:'Tw Cen MT Condensed, Normal';font-variant-ligatures:normal;font-variant-caps:normal;font-variant-numeric:normal;font-feature-settings:normal;text-align:start;letter-spacing:-1.44298589px;writing-mode:lr-tb;text-anchor:start;fill:#ffffff"
         id="path1516" />
    </g>
    <g
       aria-label="TEXTIL"
       transform="matrix(2.8563114,0,0,2.8563114,610.26963,32.330142)"
       style="font-style:normal;font-variant:normal;font-weight:normal;font-stretch:normal;font-size:39.99994659px;line-height:125%;font-family:'Poiret One';-inkscape-font-specification:'Poiret One, Normal';font-variant-ligatures:normal;font-variant-caps:normal;font-variant-numeric:normal;font-feature-settings:normal;text-align:start;letter-spacing:0px;word-spacing:0px;writing-mode:lr-tb;text-anchor:start;fill:#ffffff;fill-opacity:1;stroke:none;stroke-width:1px;stroke-linecap:butt;stroke-linejoin:miter;stroke-opacity:1"
       id="flowRoot1466">
      <path
         d="m -22.753923,208.48652 h -3.808588 v 22.03122 h -3.359371 v -22.03122 h -3.789057 v -2.85155 h 10.957016 z"
         style="font-style:normal;font-variant:normal;font-weight:normal;font-stretch:normal;font-size:39.99994659px;font-family:'Tw Cen MT Condensed';-inkscape-font-specification:'Tw Cen MT Condensed, Normal';font-variant-ligatures:normal;font-variant-caps:normal;font-variant-numeric:normal;font-feature-settings:normal;text-align:start;letter-spacing:-1.44298589px;writing-mode:lr-tb;text-anchor:start;fill:#ffffff"
         id="path1519" />
      <path
         d="m -11.716456,230.51774 h -9.003894 v -24.88277 h 8.847644 v 2.85155 h -5.527336 v 7.87109 h 5.117181 v 2.83202 h -5.117181 v 8.57421 h 5.683586 z"
         style="font-style:normal;font-variant:normal;font-weight:normal;font-stretch:normal;font-size:39.99994659px;font-family:'Tw Cen MT Condensed';-inkscape-font-specification:'Tw Cen MT Condensed, Normal';font-variant-ligatures:normal;font-variant-caps:normal;font-variant-numeric:normal;font-feature-settings:normal;text-align:start;letter-spacing:-1.44298589px;writing-mode:lr-tb;text-anchor:start;fill:#ffffff"
         id="path1521" />
      <path
         d="m 2.0163197,230.51774 h -3.1640583 l -3.2812456,-8.51561 -3.3203081,8.51561 h -3.2421827 l 4.921868,-12.83201 -4.550775,-12.05076 h 3.2226518 l 2.968746,7.81248 3.0078085,-7.81248 h 3.2812456 l -4.6484313,12.08982 z"
         style="font-style:normal;font-variant:normal;font-weight:normal;font-stretch:normal;font-size:39.99994659px;font-family:'Tw Cen MT Condensed';-inkscape-font-specification:'Tw Cen MT Condensed, Normal';font-variant-ligatures:normal;font-variant-caps:normal;font-variant-numeric:normal;font-feature-settings:normal;text-align:start;letter-spacing:-1.44298589px;writing-mode:lr-tb;text-anchor:start;fill:#ffffff"
         id="path1523" />
      <path
         d="M 13.463942,208.48652 H 9.6553537 v 22.03122 H 6.2959832 V 208.48652 H 2.5069258 v -2.85155 H 13.463942 Z"
         style="font-style:normal;font-variant:normal;font-weight:normal;font-stretch:normal;font-size:39.99994659px;font-family:'Tw Cen MT Condensed';-inkscape-font-specification:'Tw Cen MT Condensed, Normal';font-variant-ligatures:normal;font-variant-caps:normal;font-variant-numeric:normal;font-feature-settings:normal;text-align:start;letter-spacing:-1.44298589px;writing-mode:lr-tb;text-anchor:start;fill:#ffffff"
         id="path1525" />
      <path
         d="m 15.985794,205.63497 h 3.35937 v 24.88277 h -3.35937 z"
         style="font-style:normal;font-variant:normal;font-weight:normal;font-stretch:normal;font-size:39.99994659px;font-family:'Tw Cen MT Condensed';-inkscape-font-specification:'Tw Cen MT Condensed, Normal';font-variant-ligatures:normal;font-variant-caps:normal;font-variant-numeric:normal;font-feature-settings:normal;text-align:start;letter-spacing:-1.44298589px;writing-mode:lr-tb;text-anchor:start;fill:#ffffff"
         id="path1527" />
      <path
         d="m 32.12091,230.51774 h -9.003894 v -24.88277 h 3.359371 v 22.08981 h 5.644523 z"
         style="font-style:normal;font-variant:normal;font-weight:normal;font-stretch:normal;font-size:39.99994659px;font-family:'Tw Cen MT Condensed';-inkscape-font-specification:'Tw Cen MT Condensed, Normal';font-variant-ligatures:normal;font-variant-caps:normal;font-variant-numeric:normal;font-feature-settings:normal;text-align:start;letter-spacing:-1.44298589px;writing-mode:lr-tb;text-anchor:start;fill:#ffffff"
         id="path1529" />
    </g>
  </g>
</svg>
